<svg xmlns="http://www.w3.org/2000/svg" viewBox="0 0 20 20" fill="none" aria-hidden="true">
	<path
		fill="#343019"
		d="M10.0047 0C9.36478 0 8.73891 0.0607192 8.13639 0.177487C8.13639 0.177487 8.13638 0.177487 8.12704 0.177487C4.53059 0.864082 1.61607 3.47968 0.495096 6.90332H0.476413C0.467071 6.94535 0.45773 6.99206 0.448389 7.03877C0.158804 7.97291 0 8.96777 0 10C0 15.5161 4.48389 20 10 20C10.6305 20 11.2424 19.9393 11.8403 19.8319L11.9944 19.8038C13.5404 19.4909 14.9556 18.8183 16.156 17.8795C16.156 17.8795 16.17 17.8702 16.1887 17.8515C18.51 16.0206 20 13.1808 20 10C20 4.48389 15.5161 0 10 0H10.0047ZM8.32788 1.07426C8.86969 0.971509 9.43017 0.920131 10.0047 0.920131C14.1663 0.920131 17.6787 3.74124 18.7482 7.56656C18.9117 8.58944 17.9169 8.02429 17.744 7.89351C17.5712 7.76273 16.5203 6.95469 15.9552 6.43157C14.3251 4.91359 12.0878 4.03083 9.14993 3.74591C8.071 3.64316 7.06679 3.67118 6.15133 3.83933C6.15133 3.83933 6.15133 3.83933 6.14199 3.83466C5.99253 1.76553 8.07567 1.14433 8.32321 1.07894L8.32788 1.07426ZM14.4232 6.38487C14.2223 6.33349 14.0168 6.28678 13.8066 6.24475C12.2466 5.93181 10.9715 5.93648 10.8688 5.93648C10.8034 5.93648 9.57964 5.92247 8.37926 5.59552C7.56189 5.37132 6.96404 5.0724 6.59505 4.69407C7.3517 4.58197 8.17842 4.57263 9.06119 4.6567C11.2704 4.87156 13.0453 5.44138 14.4278 6.3802L14.4232 6.38487ZM11.7842 18.9024C11.2097 19.0191 10.6165 19.0799 10.0047 19.0799C5.70294 19.0799 2.10182 16.0719 1.16768 12.0551C1.0369 11.2237 1.87296 11.8169 1.87296 11.8169L2.60626 12.3961C2.60626 12.3961 3.81597 13.2882 4.70808 13.8767C4.73143 13.8907 4.75012 13.9 4.7688 13.9141C6.32882 15.1004 8.35124 15.8057 10.9201 16.0579C11.3358 16.1 11.7422 16.1186 12.1345 16.1186C12.7137 16.1186 13.2695 16.0719 13.7926 15.9879C13.83 16.1186 13.8487 16.2541 13.8487 16.3989C13.8487 18.1037 12.284 18.7482 11.7842 18.9117V18.9024ZM6.23073 13.7786C7.76273 14.0822 9.01448 14.0775 9.11256 14.0729C9.17795 14.0729 10.4017 14.0869 11.6021 14.4138C12.284 14.6007 12.8118 14.8389 13.1854 15.1331C12.5082 15.2078 11.7749 15.2078 11.0042 15.1331C9.09388 14.9463 7.51518 14.4979 6.23073 13.7739V13.7786ZM16.5063 15.9085C16.1747 16.567 15.7216 17.0294 15.5908 17.1555C15.2172 17.4498 14.8155 17.716 14.3951 17.9449C14.6427 17.4778 14.7688 16.9547 14.7688 16.3895C14.7688 13.2041 9.35077 13.1527 9.11724 13.1527H9.11256C9.06119 13.1527 4.15694 13.1808 2.12985 10.738C1.37319 9.82718 1.11163 8.65483 1.34984 7.25362C1.53667 6.66044 1.78421 6.09528 2.08314 5.56282C2.08314 6.3475 2.28398 7.06212 2.67165 7.688C3.64783 9.2667 5.78702 10.2569 9.21532 10.724C9.90192 10.8174 10.5792 10.8734 11.2377 10.9248C13.6058 11.121 15.6469 11.2891 16.5624 13.0593C17.0294 13.9608 17.0107 14.9183 16.511 15.9038L16.5063 15.9085ZM18.1644 13.9841C18.0523 14.2083 17.9355 14.4278 17.8048 14.6427C17.8468 13.9561 17.7067 13.2835 17.3751 12.6436C16.2261 10.4204 13.8393 10.2242 11.3078 10.014C10.6632 9.96263 9.99533 9.90659 9.33209 9.81784C6.19337 9.39281 4.26903 8.53807 3.45166 7.21158C3.23681 6.86128 3.09668 6.47361 3.04064 6.04858C2.86315 4.80149 3.47501 3.57777 4.47454 2.8071C4.82952 2.5362 5.20318 2.28865 5.59552 2.06913C5.34797 2.5362 5.21719 3.05932 5.21719 3.62915C5.21719 6.81457 10.6352 6.86595 10.8688 6.86595H10.8734C10.9201 6.86595 15.8291 6.83793 17.8561 9.28071C18.4026 9.93928 18.6922 10.738 18.7202 11.6581C18.7436 12.4661 18.5194 13.2648 18.1644 13.9935V13.9841Z"
	/>
</svg>
